<svg width="150" height="150" viewBox="0 0 255 275" fill="none" xmlns="http://www.w3.org/2000/svg">
<path fill-rule="evenodd" clip-rule="evenodd" d="M127.086 0C115.768 29.9196 108.942 49.4905 96.3422 78.5206C104.068 87.3509 113.55 97.6343 128.95 109.248C112.394 101.902 101.1 94.5264 92.6606 86.8728C76.5347 123.157 51.2701 174.842 0 274.178C40.2966 249.092 71.5338 233.627 100.645 227.725C99.3952 221.928 98.6845 215.657 98.7328 209.113L98.7806 207.721C99.42 179.883 112.85 158.475 128.759 159.928C144.668 161.382 157.034 185.142 156.395 212.98C156.274 218.218 155.726 223.258 154.769 227.932C183.565 234.006 214.468 249.432 254.219 274.178C246.381 258.617 239.385 244.59 232.703 231.231C222.179 222.436 211.203 210.988 188.812 198.596C204.202 202.908 215.221 207.883 223.81 213.444C155.881 77.0678 150.38 58.9462 127.086 0Z" fill="url(#paint0_linear)"/>
<defs>
<linearGradient id="paint0_linear" x1="127.11" y1="0" x2="127.11" y2="274.178" gradientUnits="userSpaceOnUse">
<stop stop-color="#008EF5" stop-opacity="0"/>
<stop offset="0.390258" stop-color="#504AF1" stop-opacity="0.672414"/>
<stop offset="1" stop-color="#9631CA"/>
</linearGradient>
</defs>
</svg>

