<svg width="1045" height="1024" viewBox="0 0 1045 1024" fill="none" xmlns="http://www.w3.org/2000/svg">
<path d="M640.026 744.065C632.71 725.605 622.075 709.036 608.786 695.394L597.82 684.114C597.448 683.741 597 683.477 596.515 683.344C596.03 683.211 595.524 683.214 595.04 683.351C594.556 683.489 594.11 683.758 593.741 684.134C593.371 684.51 593.09 684.982 592.921 685.508L588.022 701.267C584.97 711.153 579.355 721.251 571.404 731.179C570.876 731.813 570.273 731.982 569.859 732.024C569.444 732.066 568.804 731.982 568.238 731.39C567.711 730.884 567.447 730.123 567.485 729.363C568.879 703.929 562.096 675.242 547.249 644.02C534.964 618.079 517.893 597.842 496.564 583.731L481.001 573.464C478.966 572.112 476.366 573.887 476.479 576.548L477.308 596.828C477.873 610.685 476.441 622.938 473.049 633.12C468.904 645.583 462.95 657.159 455.338 667.552C450.041 674.775 444.036 681.309 437.438 687.029C421.547 700.725 408.626 718.274 399.642 738.362C390.679 758.625 386.011 780.934 386 803.552C386 823.493 389.505 842.801 396.438 861.01C403.134 878.542 412.795 894.453 424.89 907.864C437.099 921.384 451.268 932.03 467.058 939.424C483.412 947.113 500.747 951 518.647 951C536.546 951 553.881 947.113 570.236 939.466C585.986 932.116 600.309 921.396 612.404 907.906C624.613 894.387 634.185 878.586 640.855 861.052C647.778 842.893 651.33 823.343 651.293 803.594C651.293 782.976 647.525 762.95 640.026 744.065Z" fill="#ED5424"/>
<path d="M624.769 770.343C618.382 754.226 609.097 739.761 597.496 727.852L587.922 718.004C587.597 717.679 587.206 717.448 586.783 717.332C586.36 717.216 585.918 717.218 585.495 717.338C585.073 717.459 584.684 717.693 584.361 718.021C584.039 718.35 583.793 718.762 583.646 719.221L579.369 732.979C576.704 741.61 571.802 750.425 564.861 759.093C564.4 759.646 563.874 759.794 563.512 759.831C563.15 759.868 562.591 759.794 562.097 759.277C561.636 758.835 561.406 758.171 561.439 757.507C562.656 735.303 556.735 710.259 543.773 683.001C533.048 660.355 518.145 642.687 499.524 630.368L485.937 621.405C484.161 620.225 481.891 621.774 481.989 624.098L482.713 641.802C483.206 653.9 481.956 664.596 478.995 673.485C475.377 684.366 470.179 694.472 463.533 703.546C458.908 709.852 453.667 715.555 447.906 720.549C434.033 732.506 422.753 747.826 414.909 765.363C407.085 783.053 403.01 802.53 403 822.275C403 839.684 406.06 856.54 412.113 872.437C417.958 887.743 426.393 901.634 436.951 913.342C447.61 925.144 459.98 934.439 473.765 940.894C488.043 947.607 503.176 951 518.803 951C534.429 951 549.563 947.607 563.841 940.931C577.591 934.514 590.095 925.156 600.654 913.378C611.313 901.576 619.669 887.781 625.492 872.474C631.537 856.621 634.637 839.553 634.605 822.312C634.605 804.313 631.315 786.83 624.769 770.343Z" fill="#ED8424"/>
<path d="M590.332 828.236C586.002 817.311 579.709 807.506 571.844 799.433L565.355 792.757C565.134 792.536 564.869 792.38 564.582 792.301C564.295 792.223 563.996 792.224 563.709 792.306C563.423 792.387 563.159 792.546 562.94 792.769C562.722 792.991 562.555 793.27 562.455 793.582L559.556 802.908C557.75 808.759 554.427 814.734 549.721 820.61C549.409 820.985 549.052 821.085 548.807 821.11C548.562 821.135 548.183 821.085 547.848 820.735C547.536 820.435 547.38 819.985 547.402 819.535C548.227 804.483 544.213 787.506 535.426 769.029C528.156 753.678 518.054 741.701 505.431 733.35L496.221 727.275C495.017 726.475 493.478 727.525 493.545 729.1L494.036 741.101C494.37 749.302 493.523 756.553 491.516 762.579C489.062 769.954 485.539 776.805 481.034 782.956C477.899 787.23 474.346 791.097 470.441 794.482C461.037 802.587 453.39 812.973 448.073 824.86C442.769 836.852 440.006 850.055 440 863.44C440 875.241 442.074 886.667 446.177 897.443C450.14 907.819 455.857 917.235 463.015 925.172C470.24 933.172 478.626 939.473 487.97 943.849C497.648 948.399 507.907 950.699 518.5 950.699C529.093 950.699 539.351 948.399 549.03 943.874C558.351 939.524 566.827 933.18 573.985 925.197C581.211 917.196 586.875 907.845 590.822 897.468C594.92 886.722 597.021 875.152 597 863.465C597 851.263 594.77 839.412 590.332 828.236Z" fill="#EDB524"/>
<path fill-rule="evenodd" clip-rule="evenodd" d="M479.429 71.4996C488.485 49.0531 497.992 25.4869 508.399 0C517.592 21.5486 526.218 41.9035 534.538 61.5353C615.204 251.874 667.063 374.24 926.97 857.6C919.821 853.313 911.872 848.217 903.218 842.67C867.987 820.088 821.079 790.02 768.93 776.485C844.644 815.303 889.437 851.749 927.098 882.392C936.446 889.998 945.355 897.246 954.188 904.085C959.796 914.473 965.457 924.964 971.188 935.586C994.27 978.369 1018.5 1023.26 1045 1072C917.371 998.4 752.635 930.546 620.834 902.874C621.952 901.7 623.055 900.507 624.143 899.294C638.226 883.7 649.266 865.474 656.96 845.251C664.945 824.305 669.042 801.755 669 778.976C669 755.195 664.653 732.096 656.003 710.313C647.565 689.02 635.298 669.909 619.97 654.175L607.322 641.163C606.892 640.734 606.375 640.429 605.816 640.275C605.257 640.122 604.673 640.125 604.115 640.283C603.557 640.442 603.043 640.752 602.616 641.186C602.19 641.62 601.866 642.164 601.671 642.771L596.02 660.948C592.5 672.351 586.023 683.998 576.852 695.45C576.244 696.181 575.548 696.376 575.07 696.425C574.592 696.474 573.853 696.376 573.201 695.694C572.592 695.109 572.288 694.232 572.332 693.355C573.94 664.018 566.116 630.93 548.99 594.917C534.821 564.996 515.13 541.654 490.529 525.377L472.577 513.536C470.23 511.976 467.231 514.023 467.362 517.093L468.318 540.484C468.97 556.468 467.318 570.6 463.406 582.344C458.625 596.72 451.757 610.073 442.977 622.06C436.867 630.392 429.941 637.927 422.331 644.526C404.002 660.323 389.097 680.564 378.735 703.734C368.397 727.107 363.013 752.839 363 778.927C363 801.928 367.042 824.199 375.04 845.202C382.762 865.424 393.907 883.777 407.857 899.245C408.423 899.872 408.993 900.494 409.567 901.11C276.262 927.149 105.78 994.853 -28 1072C188.399 683.61 290.216 481.333 358.28 339.466C393.903 369.391 446.389 398.423 516.27 427.147C451.27 381.737 411.246 341.531 378.638 307.005C420.234 218.23 446.921 152.08 479.429 71.4996Z" fill="url(#paint0_linear)"/>
<defs>
<linearGradient id="paint0_linear" x1="1675.39" y1="6.25264" x2="1675.39" y2="1078.25" gradientUnits="userSpaceOnUse">
<stop stop-color="#6922FF" stop-opacity="0.672414"/>
<stop offset="0.598958" stop-color="#3F97D6" stop-opacity="0.852769"/>
<stop offset="0.9999" stop-color="#31CAC1"/>
<stop offset="1" stop-color="#5505FF" stop-opacity="0"/>
</linearGradient>
</defs>
</svg>
