<svg width="1073" height="1072" viewBox="0 0 1073 1072" fill="none" xmlns="http://www.w3.org/2000/svg">
<path fill-rule="evenodd" clip-rule="evenodd" d="M507.429 71.4996C516.485 49.0531 525.992 25.4869 536.399 0C545.592 21.5486 554.218 41.9035 562.538 61.5353C643.204 251.874 695.063 374.24 954.97 857.6C947.821 853.313 939.872 848.217 931.218 842.67C895.987 820.088 849.079 790.02 796.93 776.485C872.644 815.303 917.437 851.749 955.098 882.392C964.446 889.998 973.355 897.246 982.188 904.085C987.796 914.473 993.457 924.964 999.188 935.586C1022.27 978.369 1046.5 1023.26 1073 1072C945.371 998.4 780.635 930.546 648.834 902.874C649.952 901.7 651.055 900.507 652.143 899.294C666.226 883.7 677.266 865.474 684.96 845.251C692.945 824.305 697.042 801.755 697 778.976C697 755.195 692.653 732.096 684.003 710.313C675.565 689.02 663.298 669.909 647.97 654.175L635.322 641.163C634.892 640.734 634.375 640.429 633.816 640.275C633.257 640.122 632.673 640.125 632.115 640.283C631.557 640.442 631.043 640.752 630.616 641.186C630.19 641.62 629.866 642.164 629.671 642.771L624.02 660.948C620.5 672.351 614.023 683.998 604.852 695.45C604.244 696.181 603.548 696.376 603.07 696.425C602.592 696.474 601.853 696.376 601.201 695.694C600.592 695.109 600.288 694.232 600.332 693.355C601.94 664.018 594.116 630.93 576.99 594.917C562.821 564.996 543.13 541.654 518.529 525.377L500.577 513.536C498.23 511.976 495.231 514.023 495.362 517.093L496.318 540.484C496.97 556.468 495.318 570.6 491.406 582.344C486.625 596.72 479.757 610.073 470.977 622.06C464.867 630.392 457.941 637.927 450.331 644.526C432.002 660.323 417.097 680.564 406.735 703.734C396.397 727.107 391.013 752.839 391 778.927C391 801.928 395.042 824.199 403.04 845.202C410.762 865.424 421.907 883.777 435.857 899.245C436.423 899.872 436.993 900.494 437.567 901.11C304.262 927.149 133.78 994.853 0 1072C216.399 683.61 318.216 481.333 386.28 339.466C421.903 369.391 474.389 398.423 544.27 427.147C479.27 381.737 439.246 341.531 406.638 307.005C448.234 218.23 474.921 152.08 507.429 71.4996Z" fill="url(#paint0_linear)"/>
<path d="M667.026 744.065C659.71 725.605 649.075 709.036 635.786 695.394L624.82 684.114C624.448 683.741 624 683.477 623.515 683.344C623.03 683.211 622.524 683.214 622.04 683.351C621.556 683.489 621.11 683.758 620.741 684.134C620.371 684.51 620.09 684.982 619.921 685.508L615.022 701.267C611.97 711.153 606.355 721.251 598.404 731.179C597.876 731.813 597.273 731.982 596.859 732.024C596.444 732.066 595.804 731.982 595.238 731.39C594.711 730.884 594.447 730.123 594.485 729.363C595.879 703.929 589.096 675.242 574.249 644.02C561.964 618.079 544.893 597.842 523.564 583.731L508.001 573.464C505.966 572.112 503.366 573.887 503.479 576.548L504.308 596.828C504.873 610.685 503.441 622.938 500.049 633.12C495.904 645.583 489.95 657.159 482.338 667.552C477.041 674.775 471.036 681.309 464.438 687.029C448.547 700.725 435.626 718.274 426.642 738.362C417.679 758.625 413.011 780.934 413 803.552C413 823.493 416.505 842.801 423.438 861.01C430.134 878.542 439.795 894.453 451.89 907.864C464.099 921.384 478.268 932.03 494.058 939.424C510.412 947.113 527.747 951 545.647 951C563.546 951 580.881 947.113 597.236 939.466C612.986 932.116 627.309 921.396 639.404 907.906C651.613 894.387 661.185 878.586 667.855 861.052C674.778 842.893 678.33 823.343 678.293 803.594C678.293 782.976 674.525 762.95 667.026 744.065Z" fill="#ED5424"/>
<path d="M651.769 783.343C645.382 767.226 636.097 752.761 624.496 740.852L614.922 731.004C614.597 730.679 614.206 730.448 613.783 730.332C613.36 730.216 612.918 730.218 612.495 730.338C612.073 730.459 611.684 730.693 611.361 731.021C611.039 731.35 610.793 731.762 610.646 732.221L606.369 745.979C603.704 754.61 598.802 763.425 591.861 772.093C591.4 772.646 590.874 772.794 590.512 772.831C590.15 772.868 589.591 772.794 589.097 772.277C588.636 771.835 588.406 771.171 588.439 770.507C589.656 748.303 583.735 723.259 570.773 696.001C560.048 673.355 545.145 655.687 526.524 643.368L512.937 634.405C511.161 633.225 508.891 634.774 508.989 637.098L509.713 654.802C510.206 666.9 508.956 677.596 505.995 686.485C502.377 697.366 497.179 707.472 490.533 716.546C485.908 722.852 480.667 728.555 474.906 733.549C461.033 745.506 449.753 760.826 441.909 778.363C434.085 796.053 430.01 815.53 430 835.275C430 852.684 433.06 869.54 439.113 885.437C444.958 900.743 453.393 914.634 463.951 926.342C474.61 938.144 486.98 947.439 500.765 953.894C515.043 960.607 530.176 964 545.803 964C561.429 964 576.563 960.607 590.841 953.931C604.591 947.514 617.095 938.156 627.654 926.378C638.313 914.576 646.669 900.781 652.492 885.474C658.537 869.621 661.637 852.553 661.605 835.312C661.605 817.313 658.315 799.83 651.769 783.343Z" fill="#ED8424"/>
<path d="M618.332 841.236C614.002 830.311 607.709 820.506 599.844 812.433L593.355 805.757C593.134 805.536 592.869 805.38 592.582 805.301C592.295 805.223 591.996 805.224 591.709 805.306C591.423 805.387 591.159 805.546 590.94 805.769C590.722 805.991 590.555 806.27 590.455 806.582L587.556 815.908C585.75 821.759 582.427 827.734 577.721 833.61C577.409 833.985 577.052 834.085 576.807 834.11C576.562 834.135 576.183 834.085 575.848 833.735C575.536 833.435 575.38 832.985 575.402 832.535C576.227 817.483 572.213 800.506 563.426 782.029C556.156 766.678 546.054 754.701 533.431 746.35L524.221 740.275C523.017 739.475 521.478 740.525 521.545 742.1L522.036 754.101C522.37 762.302 521.523 769.553 519.516 775.579C517.062 782.954 513.539 789.805 509.034 795.956C505.899 800.23 502.346 804.097 498.441 807.482C489.037 815.587 481.39 825.973 476.073 837.86C470.769 849.852 468.006 863.055 468 876.44C468 888.241 470.074 899.667 474.177 910.443C478.14 920.819 483.857 930.235 491.015 938.172C498.24 946.172 506.626 952.473 515.97 956.849C525.648 961.399 535.907 963.699 546.5 963.699C557.093 963.699 567.351 961.399 577.03 956.874C586.351 952.524 594.827 946.18 601.985 938.197C609.211 930.196 614.875 920.845 618.822 910.468C622.92 899.722 625.021 888.152 625 876.465C625 864.263 622.77 852.412 618.332 841.236Z" fill="#EDB524"/>
<defs>
<linearGradient id="paint0_linear" x1="1703.39" y1="6.25264" x2="1703.39" y2="1078.25" gradientUnits="userSpaceOnUse">
<stop stop-color="#6922FF" stop-opacity="0.672414"/>
<stop offset="0.598958" stop-color="#3F97D6" stop-opacity="0.852769"/>
<stop offset="0.9999" stop-color="#31CAC1"/>
<stop offset="1" stop-color="#5505FF" stop-opacity="0"/>
</linearGradient>
</defs>
</svg>
